<svg xmlns="http://www.w3.org/2000/svg" width="267.12" height="122.48" viewBox="0 0 267.12 122.48">
	<defs>
		<linearGradient id="d" x1="667.03" x2="667.4" y1="-2221.8" y2="-2235.6" gradientTransform="translate(12.827 -18.485)" gradientUnits="userSpaceOnUse">
			<stop offset="0" stop-color="#e7af20"/>
			<stop offset="1" stop-color="#fada68"/>
		</linearGradient>
		<linearGradient id="c" x1="768.85" x2="768.85" y1="-2223.2" y2="-2239.4" gradientTransform="translate(12.827 -18.485)" gradientUnits="userSpaceOnUse">
			<stop offset="0" stop-color="#0758a8"/>
			<stop offset="1" stop-color="#2c8ff1"/>
		</linearGradient>
	</defs>
	<g transform="translate(-615.48 2310.8)">
		<path fill="#e3e3e3" d="M656.11-2249.2h16v-21.18h-16z" opacity=".899"/>
		<path fill="#fee6a8" d="M672.17-2249.2h16v46.256h-16z" opacity=".899"/>
		<path fill="#e3e3e3" d="M790.69-2249.3h16.213v-28.306H790.69z" opacity=".899"/>
		<path fill="#bcbcbc" d="M689.079-2248.493h16v38.449h-16zm16.95-1.236h16v-41.377h-16zm17.026.013h16v-25.48h-16zm17.088-.001h16v-34.94h-16zm16.619.263h16v23.307h-16zm16.87.69h16v41.533h-16z" opacity=".899"/>
		<path fill="#e3e3e3" d="M806.74-2249.9h16v23.307h-16zm16.875.37h16v45.819h-16z" opacity=".899"/>
		<path fill="#dda000" d="M655.14-2248.9h118.41v1.742H655.14z" opacity=".899"/>
		<path fill="#0758a9" d="M773.64-2251.3h66.237v1.992H773.64z" opacity=".899"/>
		<ellipse cx="782.36" cy="-2249.2" opacity=".899" rx="8.257" ry="8.678"/>
		<circle cx="781.86" cy="-2250" r="8.132" fill="url(#c)" stroke="#78b4f0"/>
		<ellipse cx="680.85" cy="-2246.2" opacity=".367" rx="8.257" ry="8.678"/>
		<circle cx="680.36" cy="-2246.9" r="8.132" fill="url(#d)" stroke="#fbc459"/>
		<path fill="#fff" stroke="#dadada" stroke-width="1.621" d="M616.29-2310h23.158v120.66H616.29z"/>
		<path fill="none" stroke="#171717" stroke-linecap="round" stroke-linejoin="round" stroke-width="2.956" d="m630.81-2255.9-9.15 6.663 9.098 6.698"/>
		<path fill="#fff" stroke="#dadada" stroke-width="1.621" d="M881.79-2310h-23.158v120.66h23.158z"/>
		<path fill="none" stroke="#171717" stroke-linecap="round" stroke-linejoin="round" stroke-width="2.956" d="m867.27-2258.1 9.15 6.664-9.097 6.698"/>
		<path fill="#fff" d="M640.57-2310.7h216.57v121H640.57z" opacity=".572"/>
	</g>
</svg>
