<svg xmlns="http://www.w3.org/2000/svg" width="256" height="157.05" viewBox="0 0 256 157.05">
	<path fill="#e5e5e5" d="m49.245 146.45 12.449 9.835 13.216-9.616 13.979 9.288 12.887-9.288 12.231 9.507 13.433-9.397 11.795 9.397 13.258-9.78-.424-73.714-102.93.006z"/>
	<path fill="#e5e5e5" d="m151.97 146.18 14.012 10.107 12.701-9.658 12.395 9.563 13.295-9.563 12.323 9.317 13.077-9.362 13.5 9.517-.077-83.412h-91.337z"/>
	<g stroke-linecap="round" stroke-width="1.18">
		<path fill="none" stroke="#e6e6e6" d="m.59.59 254.82.002-.1 147.02-11.832 8.656-13.686-9.393-13.102 9.364-12.159-9.496-13.425 9.514-12.621-9.522-12.588 9.584-13.695-9.553-13.033 9.491-11.662-9.344-13.35 9.374-12.438-9.335-12.727 9.307-13.837-9.399-13.394 9.41-12.139-9.535-12.125 9.523-13.325-9.34-11.247 9.33L.589 147.06z"/>
		<path fill="#e5e5e5" stroke="#e5e5e5" stroke-linejoin="round" d="M37.24 34.614c-.257-7.083-6.174-12.635-13.259-12.441-7.084.193-12.689 6.059-12.561 13.144.129 7.086 5.943 12.745 13.03 12.68s12.798-5.827 12.797-12.914"/>
		<path fill="#e5e5e5" stroke="#e5e5e5" d="M13.15 56.621h23.004v-3.773H13.15zm.092 70.479h23.003V70.304H13.242z"/>
		<path fill="#d8d8d8" stroke="#d8d8d8" d="M226.49 10.134h23.93V5.597h-23.93z"/>
	</g>
	<path fill="#e5e5e5" stroke="#e5e5e5" d="M253.94 14.518H1.88"/>
	<g stroke-linecap="round">
		<path fill="#e5e5e5" stroke="#e5e5e5" stroke-width="1.18" d="M9.33 10.045h29.72V5.508H9.33z"/>
		<path fill="#d8d8d8" stroke="#d8d8d8" stroke-width="1.18" d="M178.76 10.309h10.826V5.772H178.76zm31.115-.282h10.826V5.49h-10.826zm-15.346-.038h10.826V5.452h-10.826z"/>
		<path fill="none" stroke="#e5e5e5" d="M47.82 10.278h89.865V5.413H47.82z"/>
		<path fill="#e2e5e5" stroke="#e5e5e5" stroke-width="1.18" d="M50.9 8.227h.761v-.788H50.9z"/>
	</g>
	<g fill="#347bff">
		<path d="m61.04 48.105 10.478 9.874-.02-19.772zm12.993-.065h12.451V37.01H74.033z"/>
		<path stroke="#347bff" d="M222.38 48.129H71.4"/>
		<path d="m229.393 47.955-10.477 9.874.02-19.772zm-143.22 8.533h12.45v-8.3h-12.45zm13.105 6.225h12.449V47.97H99.278zm14.197-14.871h12.451V30.15h-12.451zm12.888.128h12.45V34.427h-12.45zm12.976.146h12.45V37.85h-12.45zm12.665 18.43h12.45V48.198h-12.45zm25.948-7.928h12.45V48.352h-12.45zm-13.283-10.811h12.45V30.333h-12.45zm26.566 15.617h12.449V48.352h-12.449zm12.664-15.617h12.45V37.54H203.9v10.267z"/>
	</g>
	<g fill="#d8d8d8">
		<path d="M54.07 91.889h81.473v-3.057H54.07zm0-8.518h29.27v-6.334H54.07zm-.109 22.518h81.473v-3.058H53.961zm0 8h56.354v-3.058H53.961zm0 14h81.473v-3.059H53.961zm.055 8h81.473v-3.059H54.016zm-.055 6h40.627v-3.059H53.961zm102.99-58.9h29.269v-6.334h-29.269zm-.109 8.9h81.471v-3.057h-81.472v3.057zm0 22h81.471v-3.058h-81.472v3.058zm0-15h81.471v-3.058h-81.472v3.058zm0 7h28.614v-3.058h-28.614zm0 22h81.471v-3.059h-81.472v3.059zm0-8h81.471v-3.059h-81.472v3.059zm.055 22h81.472v-3.059h-81.472zm-12.653-69.103v78.196h3.058V72.786z"/>
		<path d="m144.25 150.84 3.038.221-3.039 2.229z"/>
		<path d="m144.25 150.86 3.054-.683v.883l-3.047 2.226z"/>
	</g>
</svg>
