<svg xmlns="http://www.w3.org/2000/svg" width="180" height="198.673" viewBox="0 0 338.2583 373.34968"><defs><marker orient="auto" id="a" overflow="visible"><path d="M4.616 0l-6.92 4v-8l6.92 4z" fill-rule="evenodd" stroke="#000" stroke-width=".8pt"/></marker><marker orient="auto" id="b" overflow="visible"><path d="M4.616 0l-6.92 4v-8l6.92 4z" fill-rule="evenodd" stroke="#000" stroke-width=".8pt"/></marker></defs><path d="M288.932 41.93h-16.213v55.507h16.213zm-16.214 0h-16.213V20.468h16.213z" fill="#e3e3e3"/><path d="M256.505 41.93h-16.213v46.872h16.213z" fill="#fee6a8"/><path d="M240.292 41.93h-16.213v38.96h16.213zm-16.213 0h-16.213V0h16.213zm-16.214 0h-16.213V16.11h16.213zm-16.213 0h-16.213V6.522h16.213zm-16.213-.002h-16.213v23.617h16.213zm-16.214.002h-16.213v42.086h16.213zm-16.213 0h-16.213V13.624h16.213zm-16.213-.002h-16.213v23.617h16.213z" fill="#e3e3e3"/><path d="M240.292 41.93h-16.213v38.96h16.213zm-16.213 0h-16.213V0h16.213zm-16.214 0h-16.213V16.11h16.213zm-16.213 0h-16.213V6.522h16.213zm-16.213-.002h-16.213v23.617h16.213z" fill="#bcbcbc"/><path d="M159.225 42.481h-16.213v42.087h16.213z" fill="#c3e2ff"/><path d="M143.012 41.93h-16.213V13.624h16.213zm-16.213-.002h-16.213v23.617h16.213zm-16.214-.004H94.372v46.43h16.213z" fill="#e3e3e3"/><path d="M240.294 41.784H69.589v1.212h170.705z" opacity=".937" fill="#bcbcbc"/><g fill="#fdc44b" stroke="#dda000"><path transform="matrix(0 .4934 -.59638 0 -299.898 651.644)" d="M-1231.824-918.09l9.38-5.414 9.379-5.416v21.661l-9.38-5.415z" opacity=".17"/><path transform="matrix(0 .4934 -.59638 0 -298.938 651.1)" d="M-1231.824-918.09l9.38-5.414 9.379-5.416v21.661l-9.38-5.415z"/></g><path d="M149.446 40.898l3.303-4.734 3.304-4.734h-13.215l3.304 4.734z" opacity=".099" fill-opacity=".958" stroke="#000" stroke-width=".555" stroke-opacity=".553"/><path d="M149.794 39.852l3.303-4.734 3.304-4.734h-13.215l3.304 4.734z" fill="#45a6ff" stroke="#065cad" stroke-width=".555"/><path d="M256.507 41.773h-16.235v1.212h16.235z" opacity=".937" fill="#dda000"/><path d="M159.216 41.784h-16.21v1.212h16.21z" opacity=".937" fill="#065cad"/><g transform="matrix(-1 0 0 1 1177.81 -1406.386)"><path d="M839.551 1554.836h156.258v224.899H839.551z" fill="#fee6a8"/><path d="M1021.551 1554.836h156.258v224.899h-156.258z" fill="#c3e2ff"/><rect width="122.738" height="5.789" x="850.202" y="1604.458" ry="0" opacity=".102"/><rect width="125.567" height="5.789" x="850.378" y="1622.256" ry="0" opacity=".102"/><rect width="129.456" height="5.789" x="850.378" y="1640.055" ry="0" opacity=".102"/><rect width="72.18" height="5.789" x="850.378" y="1657.854" ry="0" opacity=".102"/><rect width="41.068" height="5.789" x="850.378" y="1689.146" ry="0" opacity=".102"/><rect width="122.738" height="5.789" x="850.378" y="1706.513" ry="0" opacity=".102"/><rect width="125.567" height="5.789" x="850.378" y="1723.881" ry="0" opacity=".102"/><rect width="57.685" height="5.789" x="850.378" y="1741.249" ry="0" opacity=".102"/><rect width="134.406" height="5.789" x="1032.105" y="1604.104" ry="0" opacity=".319"/><rect width="125.567" height="5.789" x="1031.398" y="1621.549" ry="0" opacity=".319"/><rect width="117.081" height="5.789" x="1031.398" y="1638.995" ry="0" opacity=".319"/><rect width="31.168" height="5.789" x="1031.398" y="1656.44" ry="0" opacity=".319"/><rect width="41.068" height="5.789" x="1031.398" y="1687.731" ry="0" opacity=".319"/><rect width="125.567" height="5.789" x="1031.398" y="1705.099" ry="0" opacity=".319"/><rect width="107.182" height="5.789" x="1031.398" y="1722.467" ry="0" opacity=".319"/><rect width="57.685" height="5.789" x="1031.398" y="1739.835" ry="0" opacity=".319"/><rect ry="0" y="1586.659" x="850.732" height="5.789" width="122.738" opacity=".102"/><rect width="72.534" height="11.446" x="850.732" y="1565.446" ry="0" opacity=".102"/><rect ry="0" y="1586.659" x="1031.751" height="5.789" width="134.406" opacity=".319"/><rect width="90.565" height="9.678" x="1031.398" y="1565.446" ry="0" opacity=".319"/><path d="M1028.506 1504.349l72.869 42.401" fill="none" stroke="#000" marker-end="url(#a)"/><path d="M928.61 1504.493l-12.235 42.257" fill="none" stroke="#000" marker-end="url(#b)"/></g></svg>