<svg xmlns="http://www.w3.org/2000/svg" width="267.121" height="122.485" viewBox="0 0 267.12106 122.48537"><path fill="#e3e3e3" d="M36.501 57.065h16.213v55.508H36.501zM52.715 57.066h16.213V35.604H52.715z"/><path fill="#fee6a8" d="M68.928 57.065h16.213v46.873H68.928z"/><path fill="#e3e3e3" d="M85.141 57.065h16.213v38.96H85.141zM101.354 57.065h16.213v-41.93h-16.213zM117.568 57.065h16.213v-25.82h-16.213zM133.781 57.065h16.213V21.659h-16.213zM149.994 57.064h16.213V80.68h-16.213zM166.208 57.065h16.213v42.087h-16.213zM182.421 57.066h16.213V28.76h-16.213zM198.634 57.064h16.213V80.68h-16.213z"/><path fill="#bcbcbc" d="M85.141 57.065h16.213v38.96H85.141zM101.354 57.065h16.213v-41.93h-16.213zM117.568 57.065h16.213v-25.82h-16.213zM133.781 57.065h16.213V21.659h-16.213zM149.994 57.064h16.213V80.68h-16.213z"/><path fill="#c3e2ff" d="M166.208 57.617h16.213v42.087h-16.213z"/><path fill="#e3e3e3" d="M182.421 57.066h16.213V28.76h-16.213zM198.634 57.064h16.213V80.68h-16.213zM214.848 57.06h16.213v46.43h-16.213z"/><path opacity=".937" fill="#bcbcbc" d="M85.14 56.92h146.204v1.212H85.14z"/><g fill="#fdc44b" stroke="#dda000"><path transform="matrix(0 .4934 .59638 0 625.33 666.78)" d="M-1231.824-918.09l9.38-5.414 9.379-5.416v21.661l-9.38-5.415z" opacity=".17"/><path transform="matrix(0 .4934 .59638 0 624.371 666.236)" d="M-1231.824-918.09l9.38-5.414 9.379-5.416v21.661l-9.38-5.415z"/></g><path transform="matrix(0 -.50472 .61006 0 736.077 -565.693)" d="M-1231.824-918.09l9.38-5.414 9.379-5.416v21.661l-9.38-5.415z" opacity=".099" fill-opacity=".958" stroke="#000" stroke-opacity=".553"/><path d="M-1231.824-918.09l9.38-5.414 9.379-5.416v21.661l-9.38-5.415z" transform="matrix(0 -.50472 .61006 0 735.729 -566.738)" fill="#45a6ff" stroke="#065cad"/><path opacity=".937" fill="#dda000" d="M68.926 56.909h16.235v1.212H68.926z"/><path opacity=".937" fill="#065cad" d="M166.217 56.92h16.21v1.212h-16.21z"/><path fill="#fff" stroke="#dadada" stroke-width="1.621" d="M.81.81h23.158v120.662H.81z"/><path d="M15.33 54.91l-9.15 6.663 9.098 6.698" fill="none" stroke="#171717" stroke-width="2.956" stroke-linecap="round" stroke-linejoin="round"/><path fill="#fff" stroke="#dadada" stroke-width="1.621" d="M266.31.81h-23.158v120.662h23.158z"/><path d="M251.79 52.652l9.15 6.664-9.097 6.698" fill="none" stroke="#171717" stroke-width="2.956" stroke-linecap="round" stroke-linejoin="round"/><path opacity=".572" fill="#fff" d="M29.173 1.486h209.5v121h-209.5z"/></svg>