<svg xmlns="http://www.w3.org/2000/svg" width="267.121" height="122.485" viewBox="0 0 267.12106 122.48537"><path d="M231.344 57.065h-16.213v55.508h16.213zm-16.214.001h-16.213V35.604h16.213z" fill="#e3e3e3"/><path d="M198.917 57.065h-16.213v46.873h16.213z" fill="#fee6a8"/><path d="M182.704 57.065h-16.213v38.96h16.213zm-16.213 0h-16.213v-41.93h16.213zm-16.214 0h-16.213v-25.82h16.213zm-16.213 0h-16.213V21.659h16.213zm-16.213-.001h-16.213V80.68h16.213zm-16.214.001H85.424v42.087h16.213zm-16.213.001H69.211V28.76h16.213zm-16.213-.002H52.998V80.68h16.213z" fill="#e3e3e3"/><path d="M182.704 57.065h-16.213v38.96h16.213zm-16.213 0h-16.213v-41.93h16.213zm-16.214 0h-16.213v-25.82h16.213zm-16.213 0h-16.213V21.659h16.213zm-16.213-.001h-16.213V80.68h16.213z" fill="#bcbcbc"/><path d="M101.637 57.617H85.424v42.087h16.213z" fill="#c3e2ff"/><path d="M85.424 57.066H69.211V28.76h16.213zm-16.213-.002H52.998V80.68h16.213zm-16.214-.004H36.784v46.43h16.213z" fill="#e3e3e3"/><path d="M182.705 56.92H36.501v1.212h146.204z" opacity=".937" fill="#bcbcbc"/><g fill="#fdc44b" stroke="#dda000"><path transform="matrix(0 .4934 -.59638 0 -357.485 666.78)" d="M-1231.824-918.09l9.38-5.414 9.379-5.416v21.661l-9.38-5.415z" opacity=".17"/><path transform="matrix(0 .4934 -.59638 0 -356.526 666.236)" d="M-1231.824-918.09l9.38-5.414 9.379-5.416v21.661l-9.38-5.415z"/></g><path d="M91.858 56.033l3.303-4.734 3.304-4.734H85.25l3.304 4.734z" opacity=".099" fill-opacity=".958" stroke="#000" stroke-width=".555" stroke-opacity=".553"/><path d="M92.206 54.988l3.303-4.734 3.304-4.734H85.598l3.304 4.734z" fill="#45a6ff" stroke="#065cad" stroke-width=".555"/><path d="M198.919 56.909h-16.235v1.212h16.235z" opacity=".937" fill="#dda000"/><path d="M101.628 56.92h-16.21v1.212h16.21z" opacity=".937" fill="#065cad"/><path fill="#fff" stroke="#dadada" stroke-width="1.621" d="M.81.81h23.158v120.662H.81z"/><path d="M15.33 54.91l-9.15 6.663 9.098 6.698" fill="none" stroke="#171717" stroke-width="2.956" stroke-linecap="round" stroke-linejoin="round"/><path fill="#fff" stroke="#dadada" stroke-width="1.621" d="M266.31.81h-23.158v120.662h23.158z"/><path d="M251.79 52.652l9.15 6.664-9.097 6.698" fill="none" stroke="#171717" stroke-width="2.956" stroke-linecap="round" stroke-linejoin="round"/><path opacity=".572" fill="#fff" d="M29.173 1.486h209.5v121h-209.5z"/></svg>