<svg width="180" height="373.34967" xmlns="http://www.w3.org/2000/svg" viewBox="0 0 338.2583 373.34968"><defs><marker orient="auto" id="a" overflow="visible"><path d="M4.616 0l-6.92 4v-8l6.92 4z" fill-rule="evenodd" stroke="#000" stroke-width=".8pt"/></marker><marker orient="auto" id="b" overflow="visible"><path d="M4.616 0l-6.92 4v-8l6.92 4z" fill-rule="evenodd" stroke="#000" stroke-width=".8pt"/></marker></defs><path fill="#e3e3e3" d="M49.328 41.93h16.213v55.507H49.328zM65.542 41.93h16.213V20.468H65.542z"/><path fill="#fee6a8" d="M81.755 41.93h16.213v46.872H81.755z"/><path fill="#e3e3e3" d="M97.968 41.93h16.213v38.96H97.968zM114.181 41.93h16.213V0h-16.213zM130.395 41.93h16.213V16.11h-16.213zM146.608 41.93h16.213V6.522h-16.213zM162.821 41.928h16.213v23.617h-16.213zM179.035 41.93h16.213v42.086h-16.213zM195.248 41.93h16.213V13.624h-16.213zM211.461 41.928h16.213v23.617h-16.213z"/><path fill="#bcbcbc" d="M97.968 41.93h16.213v38.96H97.968zM114.181 41.93h16.213V0h-16.213zM130.395 41.93h16.213V16.11h-16.213zM146.608 41.93h16.213V6.522h-16.213zM162.821 41.928h16.213v23.617h-16.213z"/><path fill="#c3e2ff" d="M179.035 42.481h16.213v42.087h-16.213z"/><path fill="#e3e3e3" d="M195.248 41.93h16.213V13.624h-16.213zM211.461 41.928h16.213v23.617h-16.213zM227.675 41.924h16.213v46.43h-16.213z"/><path opacity=".937" fill="#bcbcbc" d="M97.966 41.784h170.705v1.212H97.966z"/><g fill="#fdc44b" stroke="#dda000"><path transform="matrix(0 .4934 .59638 0 638.158 651.644)" d="M-1231.824-918.09l9.38-5.414 9.379-5.416v21.661l-9.38-5.415z" opacity=".17"/><path transform="matrix(0 .4934 .59638 0 637.198 651.1)" d="M-1231.824-918.09l9.38-5.414 9.379-5.416v21.661l-9.38-5.415z"/></g><path transform="matrix(0 -.50472 .61006 0 748.904 -580.828)" d="M-1231.824-918.09l9.38-5.414 9.379-5.416v21.661l-9.38-5.415z" opacity=".099" fill-opacity=".958" stroke="#000" stroke-opacity=".553"/><path d="M-1231.824-918.09l9.38-5.414 9.379-5.416v21.661l-9.38-5.415z" transform="matrix(0 -.50472 .61006 0 748.556 -581.874)" fill="#45a6ff" stroke="#065cad"/><path opacity=".937" fill="#dda000" d="M81.753 41.773h16.235v1.212H81.753z"/><path opacity=".937" fill="#065cad" d="M179.044 41.784h16.21v1.212h-16.21z"/><g transform="translate(-839.55 -1406.386)"><path fill="#fee6a8" d="M839.551 1554.836h156.258v224.899H839.551z"/><path fill="#c3e2ff" d="M1021.551 1554.836h156.258v224.899h-156.258z"/><rect width="122.738" height="5.789" x="850.202" y="1604.458" ry="0" opacity=".102"/><rect width="125.567" height="5.789" x="850.378" y="1622.256" ry="0" opacity=".102"/><rect width="129.456" height="5.789" x="850.378" y="1640.055" ry="0" opacity=".102"/><rect width="72.18" height="5.789" x="850.378" y="1657.854" ry="0" opacity=".102"/><rect width="41.068" height="5.789" x="850.378" y="1689.146" ry="0" opacity=".102"/><rect width="122.738" height="5.789" x="850.378" y="1706.513" ry="0" opacity=".102"/><rect width="125.567" height="5.789" x="850.378" y="1723.881" ry="0" opacity=".102"/><rect width="57.685" height="5.789" x="850.378" y="1741.249" ry="0" opacity=".102"/><rect width="134.406" height="5.789" x="1032.105" y="1604.104" ry="0" opacity=".319"/><rect width="125.567" height="5.789" x="1031.398" y="1621.549" ry="0" opacity=".319"/><rect width="117.081" height="5.789" x="1031.398" y="1638.995" ry="0" opacity=".319"/><rect width="31.168" height="5.789" x="1031.398" y="1656.44" ry="0" opacity=".319"/><rect width="41.068" height="5.789" x="1031.398" y="1687.731" ry="0" opacity=".319"/><rect width="125.567" height="5.789" x="1031.398" y="1705.099" ry="0" opacity=".319"/><rect width="107.182" height="5.789" x="1031.398" y="1722.467" ry="0" opacity=".319"/><rect width="57.685" height="5.789" x="1031.398" y="1739.835" ry="0" opacity=".319"/><rect ry="0" y="1586.659" x="850.732" height="5.789" width="122.738" opacity=".102"/><rect width="72.534" height="11.446" x="850.732" y="1565.446" ry="0" opacity=".102"/><rect ry="0" y="1586.659" x="1031.751" height="5.789" width="134.406" opacity=".319"/><rect width="90.565" height="9.678" x="1031.398" y="1565.446" ry="0" opacity=".319"/><path d="M1028.506 1504.349l72.869 42.401" fill="none" stroke="#000" marker-end="url(#a)"/><path d="M928.61 1504.493l-12.235 42.257" fill="none" stroke="#000" marker-end="url(#b)"/></g></svg>
